#!OML:ASF E:\acrobat2\Project_11_07_03\Capture day 1\Session 1\Acrobat.ASF
:FULLY-SPECIFIED
:DEGREES
597
root 10.7785 6.03906 11.6626 -88.4367 3.99933 179.022
lowerback -4.6987 -3.31276 4.88039
upperback 0.337112 -4.73471 0.81445
thorax 2.6543 -2.30245 -2.20037
lowerneck 4.55768 -14.5435 -11.0437
upperneck -28.9437 -15.324 29.6881
head -5.57823 -8.25563 12.4338
rclavicle 7.63333e-014 -9.67833e-015
rhumerus 31.7865 -33.6321 -32.1852
rradius 120.002
rwrist -23.1937
rhand -19.435 -42.7337
rfingers 7.12502
rthumb 6.88524 -72.6017
lclavicle 7.63333e-014 -9.67833e-015
lhumerus 16.8929 48.2022 1.90411
lradius 108.266
lwrist 34.049
lhand -5.4872 -25.1059
lfingers 7.12502
lthumb 20.3253 3.85054
rfemur 1.32332 15.937 -8.91498
rtibia -1.31198e-014
rfoot 31.3697 -24.1522
rtoes 27.5563
lfemur -11.3424 -21.3173 2.8968
ltibia 18.5016
lfoot 37.4009 11.1408
ltoes 18.1268
598
root 10.7794 6.03854 11.6624 -88.4456 3.96741 178.999
lowerback -4.69936 -3.31709 4.90568
upperback 0.345201 -4.74255 0.818324
thorax 2.66083 -2.30579 -2.21115
lowerneck 4.58626 -14.541 -11.0335
upperneck -28.9954 -15.3209 29.6288
head -5.60898 -8.24869 12.4209
rclavicle 6.04305e-014 1.30515e-014
rhumerus 31.8009 -33.6417 -32.1998
rradius 119.989
rwrist -23.1978
rhand -19.3949 -42.7027
rfingers 7.12502
rthumb 6.92396 -72.5695
lclavicle 6.04305e-014 1.30515e-014
lhumerus 16.9472 48.2108 1.93554
lradius 108.249
lwrist 34.0407
lhand -5.52495 -25.0256
lfingers 7.12502
lthumb 20.289 3.93471
rfemur 1.3457 15.9207 -8.87614
rtibia -4.77083e-015
rfoot 31.359 -24.1295
rtoes 27.5235
lfemur -11.3425 -21.3022 2.93631
ltibia 18.4994
lfoot 37.4349 11.1269
ltoes 18.1441
599
root 10.7799 6.03783 11.6618 -88.4521 3.93013 178.973
lowerback -4.70664 -3.32297 4.94028
upperback 0.354153 -4.7535 0.823805
thorax 2.67114 -2.31045 -2.22609
lowerneck 4.61387 -14.5422 -11.0206
upperneck -29.0502 -15.3213 29.5763
head -5.63921 -8.24404 12.4099
rclavicle 5.08889e-014 -8.17502e-015
rhumerus 31.8186 -33.6448 -32.2137
rradius 119.978
rwrist -23.199
rhand -19.36 -42.667
rfingers 7.12502
rthumb 6.95769 -72.5327
lclavicle 5.08889e-014 -8.17502e-015
lhumerus 16.992 48.2218 1.96024
lradius 108.232
lwrist 34.0416
lhand -5.51318 -24.9987
lfingers 7.12502
lthumb 20.3003 3.96038
rfemur 1.36592 15.9016 -8.82852
rtibia 1.55052e-014
rfoot 31.4192 -24.0381
rtoes 27.3349
lfemur -11.3429 -21.2924 2.98022
ltibia 18.4929
lfoot 37.487 11.1278
ltoes 18.2497
600
root 10.7801 6.03711 11.6609 -88.4585 3.88272 178.946
lowerback -4.7158 -3.3291 4.98784
upperback 0.364367 -4.76586 0.832957
thorax 2.68299 -2.31561 -2.24468
lowerneck 4.64996 -14.5409 -10.9929
upperneck -29.1274 -15.3219 29.4619
head -5.68764 -8.23414 12.3784
rclavicle -3.81667e-014 2.32702e-014
rhumerus 31.834 -33.6478 -32.2247
rradius 119.973
rwrist -23.2006
rhand -19.3307 -42.6449
rfingers 7.12502
rthumb 6.9859 -72.5097
lclavicle -3.81667e-014 2.32702e-014
lhumerus 17.0188 48.2351 1.97523
lradius 108.223
lwrist 34.0553
lhand -5.48641 -24.9846
lfingers 7.12502
lthumb 20.326 3.97173
rfemur 1.38655 15.8812 -8.76751
rtibia -9.93923e-015
rfoot 31.5359 -23.9125
rtoes 27.0679
lfemur -11.3432 -21.2877 3.03408
ltibia 18.4836
lfoot 37.5414 11.1579
ltoes 18.4033
601
root 10.7801 6.03653 11.6602 -88.4651 3.83967 178.919
lowerback -4.72344 -3.33473 5.03192
upperback 0.374879 -4.77731 0.842301
thorax 2.69465 -2.32035 -2.261
lowerneck 4.68213 -14.5419 -10.9691
upperneck -29.2021 -15.3278 29.3433
head -5.73359 -8.22564 12.3449
rclavicle 3.18055e-015 1.51946e-014
rhumerus 31.8459 -33.6578 -32.2244
rradius 119.974
rwrist -23.2128
rhand -19.3119 -42.6478
rfingers 7.12502
rthumb 7.00413 -72.5119
lclavicle 3.18055e-015 1.51946e-014
lhumerus 17.0198 48.2507 1.97636
lradius 108.229
lwrist 34.0847
lhand -5.46624 -24.9583
lfingers 7.12502
lthumb 20.3454 3.99602
rfemur 1.40609 15.8615 -8.71126
rtibia 3.93594e-014
rfoot 31.662 -23.7896
rtoes 26.8663
lfemur -11.3435 -21.2983 3.08276
ltibia 18.4749
lfoot 37.5611 11.216
ltoes 18.5348
602
root 10.7801 6.03619 11.6597 -88.4692 3.81286 178.895
lowerback -4.72905 -3.33993 5.05916
upperback 0.383284 -4.78685 0.84852
thorax 2.70419 -2.32443 -2.27091
lowerneck 4.66437 -14.5681 -10.92
upperneck -29.2284 -15.3583 29.3139
head -5.74123 -8.2392 12.3249
rclavicle 9.54166e-015 -1.90088e-014
rhumerus 31.8517 -33.6745 -32.2108
rradius 119.978
rwrist -23.2364
rhand -19.3107 -42.6624
rfingers 7.12502
rthumb 7.00522 -72.5265
lclavicle 9.54166e-015 -1.90088e-014
lhumerus 16.9946 48.2665 1.96131
lradius 108.248
lwrist 34.1276
lhand -5.45746 -24.9308
lfingers 7.12502
lthumb 20.3538 4.02253
rfemur 1.4197 15.8425 -8.6743
rtibia -1.31198e-014
rfoot 31.786 -23.6778
rtoes 26.6745
lfemur -11.3492 -21.3234 3.11459
ltibia 18.4724
lfoot 37.5377 11.2823
ltoes 18.6029
603
root 10.7802 6.03606 11.6594 -88.4687 3.80269 178.875
lowerback -4.73452 -3.34402 5.06944
upperback 0.388726 -4.79363 0.850862
thorax 2.71178 -2.32742 -2.27517
lowerneck 4.64024 -14.5963 -10.8819
upperneck -29.2396 -15.39 29.32
head -5.7369 -8.25629 12.3164
rclavicle 9.54166e-015 -2.89915e-014
rhumerus 31.8441 -33.6969 -32.192
rradius 119.987
rwrist -23.2669
rhand -19.3269 -42.6816
rfingers 7.12502
rthumb 6.98961 -72.5462
lclavicle 9.54166e-015 -2.89915e-014
lhumerus 16.9548 48.2831 1.9363
lradius 108.277
lwrist 34.1748
lhand -5.45446 -24.9176
lfingers 7.12502
lthumb 20.3567 4.03545
rfemur 1.42587 15.824 -8.65911
rtibia -1.59028e-014
rfoot 31.8774 -23.615
rtoes 26.5957
lfemur -11.3646 -21.3502 3.12976
ltibia 18.4799
lfoot 37.4915 11.3363
ltoes 18.5855
604
root 10.7802 6.03606 11.6593 -88.4649 3.80325 178.858
lowerback -4.73995 -3.34696 5.06954
upperback 0.39215 -4.79804 0.850071
thorax 2.71798 -2.32939 -2.2768
lowerneck 4.6258 -14.615 -10.8601
upperneck -29.2537 -15.4116 29.3182
head -5.73663 -8.26662 12.31
rclavicle 6.36111e-015 -1.55673e-014
rhumerus 31.8242 -33.7213 -32.1787
rradius 120
rwrist -23.2969
rhand -19.3542 -42.6942
rfingers 7.12502
rthumb 6.96327 -72.5597
lclavicle 6.36111e-015 -1.55673e-014
lhumerus 16.9207 48.2978 1.91109
lradius 108.304
lwrist 34.216
lhand -5.45587 -24.9216
lfingers 7.12502
lthumb 20.3554 4.03166
rfemur 1.42798 15.8065 -8.65836
rtibia 9.93923e-015
rfoot 31.909 -23.6141
rtoes 26.6243
lfemur -11.388 -21.3733 3.13357
ltibia 18.497
lfoot 37.4451 11.3547
ltoes 18.4345
605
root 10.7802 6.03607 11.6591 -88.4583 3.81084 178.844
lowerback -4.74703 -3.34849 5.06504
upperback 0.394479 -4.80021 0.84609
thorax 2.72421 -2.33029 -2.27912
lowerneck 4.58665 -14.6361 -10.8574
upperneck -29.2262 -15.4357 29.3756
head -5.70845 -8.28248 12.3193
rclavicle 3.81667e-014 6.69035e-015
rhumerus 31.7989 -33.7383 -32.1768
rradius 120.015
rwrist -23.3115
rhand -19.3895 -42.6777
rfingers 7.12502
rthumb 6.92914 -72.5443
lclavicle 3.81667e-014 6.69035e-015
lhumerus 16.9064 48.3052 1.89593
lradius 108.323
lwrist 34.2408
lhand -5.46593 -24.9329
lfingers 7.12502
lthumb 20.3457 4.02138
rfemur 1.42649 15.7908 -8.66713
rtibia -7.95139e-015
rfoot 31.905 -23.6429
rtoes 26.7481
lfemur -11.416 -21.3919 3.12902
ltibia 18.521
lfoot 37.4069 11.3407
ltoes 18.174
606
root 10.78 6.03596 11.6587 -88.4491 3.82401 178.833
lowerback -4.7581 -3.34866 5.05855
upperback 0.396498 -4.80056 0.839022
thorax 2.7324 -2.33021 -2.28367
lowerneck 4.57245 -14.6325 -10.8787
upperneck -29.2159 -15.4401 29.3366
head -5.70437 -8.2775 12.3055
rclavicle 3.49861e-014 -2.61153e-014
rhumerus 31.7713 -33.742 -32.1845
rradius 120.032
rwrist -23.3008
rhand -19.429 -42.6358
rfingers 7.12502
rthumb 6.891 -72.5037
lclavicle 3.49861e-014 -2.61153e-014
lhumerus 16.9147 48.3046 1.9047
lradius 108.337
lwrist 34.2386
lhand -5.47527 -24.9449
lfingers 7.12502
lthumb 20.3367 4.01026
rfemur 1.42238 15.7762 -8.68377
rtibia 1.19271e-015
rfoot 31.8714 -23.6829
rtoes 26.9079
lfemur -11.4447 -21.4054 3.11784
ltibia 18.5451
lfoot 37.3811 11.3202
ltoes 17.8826
